<svg version="1.2" xmlns="http://www.w3.org/2000/svg" viewBox="0 0 1200 1800" width="1200" height="1800">
	<title>background_svg-svg</title>
	<defs>
		<linearGradient id="g1" x1="17.8" y1="653.4" x2="1181.9" y2="1147.5" gradientUnits="userSpaceOnUse">
			<stop offset="0" stop-color="#f9cfe1"/>
			<stop offset="1" stop-color="#fcecce"/>
		</linearGradient>
	</defs>
	<style>
		.s0 { fill: url(#g1) } 
	</style>
	<path id="레이어 1" class="s0" d="m691 94c114.4 7.4 203 50 203 50 127.5 67.7 171 111 171 111 50.1 82.2 97 265 97 265 46.6 265.1-3 613-3 613-22.1 223.3-94 341-94 341-93.5 137.4-360 204-360 204-171.3 43.7-325 28-325 28-120.7-7.3-211-105-211-105-46.4-53.8-93-136-93-136-57.3-96.4-58-221-58-221-4.4-162.4 71-268 71-268 55.3-93.8 232-134 232-134 104.6-17.4 148-45 148-45 41.2-50.1 23-103 23-103-3.5-35.1-51-131-51-131-46.3-69.6-84-181-84-181-33.1-155.2 79-237 79-237 127.2-67.8 255-51 255-51z"/>
</svg>